<svg width="28" height="28" viewBox="0 0 28 28" fill="none" xmlns="http://www.w3.org/2000/svg">
<rect x="28" y="1.22392e-06" width="28" height="28" rx="14" transform="rotate(90 28 1.22392e-06)" fill="#D9D9D9"/>
<path d="M8 13C7.44772 13 7 13.4477 7 14C7 14.5523 7.44772 15 8 15L8 14L8 13ZM20.7071 14.7071C21.0976 14.3166 21.0976 13.6834 20.7071 13.2929L14.3431 6.92893C13.9526 6.53841 13.3195 6.53841 12.9289 6.92893C12.5384 7.31946 12.5384 7.95262 12.9289 8.34315L18.5858 14L12.9289 19.6569C12.5384 20.0474 12.5384 20.6805 12.9289 21.0711C13.3195 21.4616 13.9526 21.4616 14.3431 21.0711L20.7071 14.7071ZM8 14L8 15L20 15L20 14L20 13L8 13L8 14Z" fill="black"/>
</svg>
